%TF.GenerationSoftware,KiCad,Pcbnew,9.0.5*%
%TF.CreationDate,2025-11-12T21:48:38+02:00*%
%TF.ProjectId,smart road pcb,736d6172-7420-4726-9f61-64207063622e,rev?*%
%TF.SameCoordinates,Original*%
%TF.FileFunction,Legend,Bot*%
%TF.FilePolarity,Positive*%
%FSLAX46Y46*%
G04 Gerber Fmt 4.6, Leading zero omitted, Abs format (unit mm)*
G04 Created by KiCad (PCBNEW 9.0.5) date 2025-11-12 21:48:38*
%MOMM*%
%LPD*%
G01*
G04 APERTURE LIST*
%ADD10C,0.150000*%
G04 APERTURE END LIST*
D10*
X205099166Y-64504819D02*
X205432499Y-64028628D01*
X205670594Y-64504819D02*
X205670594Y-63504819D01*
X205670594Y-63504819D02*
X205289642Y-63504819D01*
X205289642Y-63504819D02*
X205194404Y-63552438D01*
X205194404Y-63552438D02*
X205146785Y-63600057D01*
X205146785Y-63600057D02*
X205099166Y-63695295D01*
X205099166Y-63695295D02*
X205099166Y-63838152D01*
X205099166Y-63838152D02*
X205146785Y-63933390D01*
X205146785Y-63933390D02*
X205194404Y-63981009D01*
X205194404Y-63981009D02*
X205289642Y-64028628D01*
X205289642Y-64028628D02*
X205670594Y-64028628D01*
X204146785Y-64504819D02*
X204718213Y-64504819D01*
X204432499Y-64504819D02*
X204432499Y-63504819D01*
X204432499Y-63504819D02*
X204527737Y-63647676D01*
X204527737Y-63647676D02*
X204622975Y-63742914D01*
X204622975Y-63742914D02*
X204718213Y-63790533D01*
X189099166Y-64004819D02*
X189432499Y-63528628D01*
X189670594Y-64004819D02*
X189670594Y-63004819D01*
X189670594Y-63004819D02*
X189289642Y-63004819D01*
X189289642Y-63004819D02*
X189194404Y-63052438D01*
X189194404Y-63052438D02*
X189146785Y-63100057D01*
X189146785Y-63100057D02*
X189099166Y-63195295D01*
X189099166Y-63195295D02*
X189099166Y-63338152D01*
X189099166Y-63338152D02*
X189146785Y-63433390D01*
X189146785Y-63433390D02*
X189194404Y-63481009D01*
X189194404Y-63481009D02*
X189289642Y-63528628D01*
X189289642Y-63528628D02*
X189670594Y-63528628D01*
X188765832Y-63004819D02*
X188146785Y-63004819D01*
X188146785Y-63004819D02*
X188480118Y-63385771D01*
X188480118Y-63385771D02*
X188337261Y-63385771D01*
X188337261Y-63385771D02*
X188242023Y-63433390D01*
X188242023Y-63433390D02*
X188194404Y-63481009D01*
X188194404Y-63481009D02*
X188146785Y-63576247D01*
X188146785Y-63576247D02*
X188146785Y-63814342D01*
X188146785Y-63814342D02*
X188194404Y-63909580D01*
X188194404Y-63909580D02*
X188242023Y-63957200D01*
X188242023Y-63957200D02*
X188337261Y-64004819D01*
X188337261Y-64004819D02*
X188622975Y-64004819D01*
X188622975Y-64004819D02*
X188718213Y-63957200D01*
X188718213Y-63957200D02*
X188765832Y-63909580D01*
X218099166Y-64504819D02*
X218432499Y-64028628D01*
X218670594Y-64504819D02*
X218670594Y-63504819D01*
X218670594Y-63504819D02*
X218289642Y-63504819D01*
X218289642Y-63504819D02*
X218194404Y-63552438D01*
X218194404Y-63552438D02*
X218146785Y-63600057D01*
X218146785Y-63600057D02*
X218099166Y-63695295D01*
X218099166Y-63695295D02*
X218099166Y-63838152D01*
X218099166Y-63838152D02*
X218146785Y-63933390D01*
X218146785Y-63933390D02*
X218194404Y-63981009D01*
X218194404Y-63981009D02*
X218289642Y-64028628D01*
X218289642Y-64028628D02*
X218670594Y-64028628D01*
X217718213Y-63600057D02*
X217670594Y-63552438D01*
X217670594Y-63552438D02*
X217575356Y-63504819D01*
X217575356Y-63504819D02*
X217337261Y-63504819D01*
X217337261Y-63504819D02*
X217242023Y-63552438D01*
X217242023Y-63552438D02*
X217194404Y-63600057D01*
X217194404Y-63600057D02*
X217146785Y-63695295D01*
X217146785Y-63695295D02*
X217146785Y-63790533D01*
X217146785Y-63790533D02*
X217194404Y-63933390D01*
X217194404Y-63933390D02*
X217765832Y-64504819D01*
X217765832Y-64504819D02*
X217146785Y-64504819D01*
M02*
