%TF.GenerationSoftware,KiCad,Pcbnew,9.0.5*%
%TF.CreationDate,2025-11-12T21:48:38+02:00*%
%TF.ProjectId,smart road pcb,736d6172-7420-4726-9f61-64207063622e,rev?*%
%TF.SameCoordinates,Original*%
%TF.FileFunction,Legend,Top*%
%TF.FilePolarity,Positive*%
%FSLAX46Y46*%
G04 Gerber Fmt 4.6, Leading zero omitted, Abs format (unit mm)*
G04 Created by KiCad (PCBNEW 9.0.5) date 2025-11-12 21:48:38*
%MOMM*%
%LPD*%
G01*
G04 APERTURE LIST*
%ADD10C,0.100000*%
%ADD11C,0.125000*%
%ADD12C,0.250000*%
%ADD13C,0.150000*%
%ADD14C,0.127000*%
%ADD15C,0.200000*%
%ADD16C,0.000000*%
G04 APERTURE END LIST*
D10*
X132303884Y-60652531D02*
X132303884Y-59652531D01*
X132303884Y-60128721D02*
X132875312Y-60128721D01*
X132875312Y-60652531D02*
X132875312Y-59652531D01*
X133780074Y-60652531D02*
X133780074Y-60128721D01*
X133780074Y-60128721D02*
X133732455Y-60033483D01*
X133732455Y-60033483D02*
X133637217Y-59985864D01*
X133637217Y-59985864D02*
X133446741Y-59985864D01*
X133446741Y-59985864D02*
X133351503Y-60033483D01*
X133780074Y-60604912D02*
X133684836Y-60652531D01*
X133684836Y-60652531D02*
X133446741Y-60652531D01*
X133446741Y-60652531D02*
X133351503Y-60604912D01*
X133351503Y-60604912D02*
X133303884Y-60509673D01*
X133303884Y-60509673D02*
X133303884Y-60414435D01*
X133303884Y-60414435D02*
X133351503Y-60319197D01*
X133351503Y-60319197D02*
X133446741Y-60271578D01*
X133446741Y-60271578D02*
X133684836Y-60271578D01*
X133684836Y-60271578D02*
X133780074Y-60223959D01*
X134208646Y-60604912D02*
X134303884Y-60652531D01*
X134303884Y-60652531D02*
X134494360Y-60652531D01*
X134494360Y-60652531D02*
X134589598Y-60604912D01*
X134589598Y-60604912D02*
X134637217Y-60509673D01*
X134637217Y-60509673D02*
X134637217Y-60462054D01*
X134637217Y-60462054D02*
X134589598Y-60366816D01*
X134589598Y-60366816D02*
X134494360Y-60319197D01*
X134494360Y-60319197D02*
X134351503Y-60319197D01*
X134351503Y-60319197D02*
X134256265Y-60271578D01*
X134256265Y-60271578D02*
X134208646Y-60176340D01*
X134208646Y-60176340D02*
X134208646Y-60128721D01*
X134208646Y-60128721D02*
X134256265Y-60033483D01*
X134256265Y-60033483D02*
X134351503Y-59985864D01*
X134351503Y-59985864D02*
X134494360Y-59985864D01*
X134494360Y-59985864D02*
X134589598Y-60033483D01*
X135018170Y-60604912D02*
X135113408Y-60652531D01*
X135113408Y-60652531D02*
X135303884Y-60652531D01*
X135303884Y-60652531D02*
X135399122Y-60604912D01*
X135399122Y-60604912D02*
X135446741Y-60509673D01*
X135446741Y-60509673D02*
X135446741Y-60462054D01*
X135446741Y-60462054D02*
X135399122Y-60366816D01*
X135399122Y-60366816D02*
X135303884Y-60319197D01*
X135303884Y-60319197D02*
X135161027Y-60319197D01*
X135161027Y-60319197D02*
X135065789Y-60271578D01*
X135065789Y-60271578D02*
X135018170Y-60176340D01*
X135018170Y-60176340D02*
X135018170Y-60128721D01*
X135018170Y-60128721D02*
X135065789Y-60033483D01*
X135065789Y-60033483D02*
X135161027Y-59985864D01*
X135161027Y-59985864D02*
X135303884Y-59985864D01*
X135303884Y-59985864D02*
X135399122Y-60033483D01*
X136303884Y-60652531D02*
X136303884Y-60128721D01*
X136303884Y-60128721D02*
X136256265Y-60033483D01*
X136256265Y-60033483D02*
X136161027Y-59985864D01*
X136161027Y-59985864D02*
X135970551Y-59985864D01*
X135970551Y-59985864D02*
X135875313Y-60033483D01*
X136303884Y-60604912D02*
X136208646Y-60652531D01*
X136208646Y-60652531D02*
X135970551Y-60652531D01*
X135970551Y-60652531D02*
X135875313Y-60604912D01*
X135875313Y-60604912D02*
X135827694Y-60509673D01*
X135827694Y-60509673D02*
X135827694Y-60414435D01*
X135827694Y-60414435D02*
X135875313Y-60319197D01*
X135875313Y-60319197D02*
X135970551Y-60271578D01*
X135970551Y-60271578D02*
X136208646Y-60271578D01*
X136208646Y-60271578D02*
X136303884Y-60223959D01*
X136780075Y-59985864D02*
X136780075Y-60652531D01*
X136780075Y-60081102D02*
X136827694Y-60033483D01*
X136827694Y-60033483D02*
X136922932Y-59985864D01*
X136922932Y-59985864D02*
X137065789Y-59985864D01*
X137065789Y-59985864D02*
X137161027Y-60033483D01*
X137161027Y-60033483D02*
X137208646Y-60128721D01*
X137208646Y-60128721D02*
X137208646Y-60652531D01*
X138446742Y-60652531D02*
X138446742Y-59652531D01*
X138446742Y-59652531D02*
X138780075Y-60366816D01*
X138780075Y-60366816D02*
X139113408Y-59652531D01*
X139113408Y-59652531D02*
X139113408Y-60652531D01*
X139732456Y-60652531D02*
X139637218Y-60604912D01*
X139637218Y-60604912D02*
X139589599Y-60557292D01*
X139589599Y-60557292D02*
X139541980Y-60462054D01*
X139541980Y-60462054D02*
X139541980Y-60176340D01*
X139541980Y-60176340D02*
X139589599Y-60081102D01*
X139589599Y-60081102D02*
X139637218Y-60033483D01*
X139637218Y-60033483D02*
X139732456Y-59985864D01*
X139732456Y-59985864D02*
X139875313Y-59985864D01*
X139875313Y-59985864D02*
X139970551Y-60033483D01*
X139970551Y-60033483D02*
X140018170Y-60081102D01*
X140018170Y-60081102D02*
X140065789Y-60176340D01*
X140065789Y-60176340D02*
X140065789Y-60462054D01*
X140065789Y-60462054D02*
X140018170Y-60557292D01*
X140018170Y-60557292D02*
X139970551Y-60604912D01*
X139970551Y-60604912D02*
X139875313Y-60652531D01*
X139875313Y-60652531D02*
X139732456Y-60652531D01*
X140494361Y-60652531D02*
X140494361Y-59652531D01*
X140922932Y-60652531D02*
X140922932Y-60128721D01*
X140922932Y-60128721D02*
X140875313Y-60033483D01*
X140875313Y-60033483D02*
X140780075Y-59985864D01*
X140780075Y-59985864D02*
X140637218Y-59985864D01*
X140637218Y-59985864D02*
X140541980Y-60033483D01*
X140541980Y-60033483D02*
X140494361Y-60081102D01*
X141827694Y-60652531D02*
X141827694Y-60128721D01*
X141827694Y-60128721D02*
X141780075Y-60033483D01*
X141780075Y-60033483D02*
X141684837Y-59985864D01*
X141684837Y-59985864D02*
X141494361Y-59985864D01*
X141494361Y-59985864D02*
X141399123Y-60033483D01*
X141827694Y-60604912D02*
X141732456Y-60652531D01*
X141732456Y-60652531D02*
X141494361Y-60652531D01*
X141494361Y-60652531D02*
X141399123Y-60604912D01*
X141399123Y-60604912D02*
X141351504Y-60509673D01*
X141351504Y-60509673D02*
X141351504Y-60414435D01*
X141351504Y-60414435D02*
X141399123Y-60319197D01*
X141399123Y-60319197D02*
X141494361Y-60271578D01*
X141494361Y-60271578D02*
X141732456Y-60271578D01*
X141732456Y-60271578D02*
X141827694Y-60223959D01*
X142303885Y-60652531D02*
X142303885Y-59985864D01*
X142303885Y-60081102D02*
X142351504Y-60033483D01*
X142351504Y-60033483D02*
X142446742Y-59985864D01*
X142446742Y-59985864D02*
X142589599Y-59985864D01*
X142589599Y-59985864D02*
X142684837Y-60033483D01*
X142684837Y-60033483D02*
X142732456Y-60128721D01*
X142732456Y-60128721D02*
X142732456Y-60652531D01*
X142732456Y-60128721D02*
X142780075Y-60033483D01*
X142780075Y-60033483D02*
X142875313Y-59985864D01*
X142875313Y-59985864D02*
X143018170Y-59985864D01*
X143018170Y-59985864D02*
X143113409Y-60033483D01*
X143113409Y-60033483D02*
X143161028Y-60128721D01*
X143161028Y-60128721D02*
X143161028Y-60652531D01*
X144018170Y-60604912D02*
X143922932Y-60652531D01*
X143922932Y-60652531D02*
X143732456Y-60652531D01*
X143732456Y-60652531D02*
X143637218Y-60604912D01*
X143637218Y-60604912D02*
X143589599Y-60509673D01*
X143589599Y-60509673D02*
X143589599Y-60128721D01*
X143589599Y-60128721D02*
X143637218Y-60033483D01*
X143637218Y-60033483D02*
X143732456Y-59985864D01*
X143732456Y-59985864D02*
X143922932Y-59985864D01*
X143922932Y-59985864D02*
X144018170Y-60033483D01*
X144018170Y-60033483D02*
X144065789Y-60128721D01*
X144065789Y-60128721D02*
X144065789Y-60223959D01*
X144065789Y-60223959D02*
X143589599Y-60319197D01*
X144922932Y-60652531D02*
X144922932Y-59652531D01*
X144922932Y-60604912D02*
X144827694Y-60652531D01*
X144827694Y-60652531D02*
X144637218Y-60652531D01*
X144637218Y-60652531D02*
X144541980Y-60604912D01*
X144541980Y-60604912D02*
X144494361Y-60557292D01*
X144494361Y-60557292D02*
X144446742Y-60462054D01*
X144446742Y-60462054D02*
X144446742Y-60176340D01*
X144446742Y-60176340D02*
X144494361Y-60081102D01*
X144494361Y-60081102D02*
X144541980Y-60033483D01*
X144541980Y-60033483D02*
X144637218Y-59985864D01*
X144637218Y-59985864D02*
X144827694Y-59985864D01*
X144827694Y-59985864D02*
X144922932Y-60033483D01*
X132303884Y-62262475D02*
X132303884Y-61262475D01*
X132303884Y-61262475D02*
X132637217Y-61976760D01*
X132637217Y-61976760D02*
X132970550Y-61262475D01*
X132970550Y-61262475D02*
X132970550Y-62262475D01*
X133589598Y-62262475D02*
X133494360Y-62214856D01*
X133494360Y-62214856D02*
X133446741Y-62167236D01*
X133446741Y-62167236D02*
X133399122Y-62071998D01*
X133399122Y-62071998D02*
X133399122Y-61786284D01*
X133399122Y-61786284D02*
X133446741Y-61691046D01*
X133446741Y-61691046D02*
X133494360Y-61643427D01*
X133494360Y-61643427D02*
X133589598Y-61595808D01*
X133589598Y-61595808D02*
X133732455Y-61595808D01*
X133732455Y-61595808D02*
X133827693Y-61643427D01*
X133827693Y-61643427D02*
X133875312Y-61691046D01*
X133875312Y-61691046D02*
X133922931Y-61786284D01*
X133922931Y-61786284D02*
X133922931Y-62071998D01*
X133922931Y-62071998D02*
X133875312Y-62167236D01*
X133875312Y-62167236D02*
X133827693Y-62214856D01*
X133827693Y-62214856D02*
X133732455Y-62262475D01*
X133732455Y-62262475D02*
X133589598Y-62262475D01*
X134351503Y-62262475D02*
X134351503Y-61262475D01*
X134780074Y-62262475D02*
X134780074Y-61738665D01*
X134780074Y-61738665D02*
X134732455Y-61643427D01*
X134732455Y-61643427D02*
X134637217Y-61595808D01*
X134637217Y-61595808D02*
X134494360Y-61595808D01*
X134494360Y-61595808D02*
X134399122Y-61643427D01*
X134399122Y-61643427D02*
X134351503Y-61691046D01*
X135684836Y-62262475D02*
X135684836Y-61738665D01*
X135684836Y-61738665D02*
X135637217Y-61643427D01*
X135637217Y-61643427D02*
X135541979Y-61595808D01*
X135541979Y-61595808D02*
X135351503Y-61595808D01*
X135351503Y-61595808D02*
X135256265Y-61643427D01*
X135684836Y-62214856D02*
X135589598Y-62262475D01*
X135589598Y-62262475D02*
X135351503Y-62262475D01*
X135351503Y-62262475D02*
X135256265Y-62214856D01*
X135256265Y-62214856D02*
X135208646Y-62119617D01*
X135208646Y-62119617D02*
X135208646Y-62024379D01*
X135208646Y-62024379D02*
X135256265Y-61929141D01*
X135256265Y-61929141D02*
X135351503Y-61881522D01*
X135351503Y-61881522D02*
X135589598Y-61881522D01*
X135589598Y-61881522D02*
X135684836Y-61833903D01*
X136161027Y-62262475D02*
X136161027Y-61595808D01*
X136161027Y-61691046D02*
X136208646Y-61643427D01*
X136208646Y-61643427D02*
X136303884Y-61595808D01*
X136303884Y-61595808D02*
X136446741Y-61595808D01*
X136446741Y-61595808D02*
X136541979Y-61643427D01*
X136541979Y-61643427D02*
X136589598Y-61738665D01*
X136589598Y-61738665D02*
X136589598Y-62262475D01*
X136589598Y-61738665D02*
X136637217Y-61643427D01*
X136637217Y-61643427D02*
X136732455Y-61595808D01*
X136732455Y-61595808D02*
X136875312Y-61595808D01*
X136875312Y-61595808D02*
X136970551Y-61643427D01*
X136970551Y-61643427D02*
X137018170Y-61738665D01*
X137018170Y-61738665D02*
X137018170Y-62262475D01*
X137875312Y-62214856D02*
X137780074Y-62262475D01*
X137780074Y-62262475D02*
X137589598Y-62262475D01*
X137589598Y-62262475D02*
X137494360Y-62214856D01*
X137494360Y-62214856D02*
X137446741Y-62119617D01*
X137446741Y-62119617D02*
X137446741Y-61738665D01*
X137446741Y-61738665D02*
X137494360Y-61643427D01*
X137494360Y-61643427D02*
X137589598Y-61595808D01*
X137589598Y-61595808D02*
X137780074Y-61595808D01*
X137780074Y-61595808D02*
X137875312Y-61643427D01*
X137875312Y-61643427D02*
X137922931Y-61738665D01*
X137922931Y-61738665D02*
X137922931Y-61833903D01*
X137922931Y-61833903D02*
X137446741Y-61929141D01*
X138780074Y-62262475D02*
X138780074Y-61262475D01*
X138780074Y-62214856D02*
X138684836Y-62262475D01*
X138684836Y-62262475D02*
X138494360Y-62262475D01*
X138494360Y-62262475D02*
X138399122Y-62214856D01*
X138399122Y-62214856D02*
X138351503Y-62167236D01*
X138351503Y-62167236D02*
X138303884Y-62071998D01*
X138303884Y-62071998D02*
X138303884Y-61786284D01*
X138303884Y-61786284D02*
X138351503Y-61691046D01*
X138351503Y-61691046D02*
X138399122Y-61643427D01*
X138399122Y-61643427D02*
X138494360Y-61595808D01*
X138494360Y-61595808D02*
X138684836Y-61595808D01*
X138684836Y-61595808D02*
X138780074Y-61643427D01*
X139970551Y-62214856D02*
X140113408Y-62262475D01*
X140113408Y-62262475D02*
X140351503Y-62262475D01*
X140351503Y-62262475D02*
X140446741Y-62214856D01*
X140446741Y-62214856D02*
X140494360Y-62167236D01*
X140494360Y-62167236D02*
X140541979Y-62071998D01*
X140541979Y-62071998D02*
X140541979Y-61976760D01*
X140541979Y-61976760D02*
X140494360Y-61881522D01*
X140494360Y-61881522D02*
X140446741Y-61833903D01*
X140446741Y-61833903D02*
X140351503Y-61786284D01*
X140351503Y-61786284D02*
X140161027Y-61738665D01*
X140161027Y-61738665D02*
X140065789Y-61691046D01*
X140065789Y-61691046D02*
X140018170Y-61643427D01*
X140018170Y-61643427D02*
X139970551Y-61548189D01*
X139970551Y-61548189D02*
X139970551Y-61452951D01*
X139970551Y-61452951D02*
X140018170Y-61357713D01*
X140018170Y-61357713D02*
X140065789Y-61310094D01*
X140065789Y-61310094D02*
X140161027Y-61262475D01*
X140161027Y-61262475D02*
X140399122Y-61262475D01*
X140399122Y-61262475D02*
X140541979Y-61310094D01*
X141399122Y-61595808D02*
X141399122Y-62262475D01*
X140970551Y-61595808D02*
X140970551Y-62119617D01*
X140970551Y-62119617D02*
X141018170Y-62214856D01*
X141018170Y-62214856D02*
X141113408Y-62262475D01*
X141113408Y-62262475D02*
X141256265Y-62262475D01*
X141256265Y-62262475D02*
X141351503Y-62214856D01*
X141351503Y-62214856D02*
X141399122Y-62167236D01*
X142018170Y-62262475D02*
X141922932Y-62214856D01*
X141922932Y-62214856D02*
X141875313Y-62119617D01*
X141875313Y-62119617D02*
X141875313Y-61262475D01*
X142256266Y-61595808D02*
X142637218Y-61595808D01*
X142399123Y-61262475D02*
X142399123Y-62119617D01*
X142399123Y-62119617D02*
X142446742Y-62214856D01*
X142446742Y-62214856D02*
X142541980Y-62262475D01*
X142541980Y-62262475D02*
X142637218Y-62262475D01*
X143399123Y-62262475D02*
X143399123Y-61738665D01*
X143399123Y-61738665D02*
X143351504Y-61643427D01*
X143351504Y-61643427D02*
X143256266Y-61595808D01*
X143256266Y-61595808D02*
X143065790Y-61595808D01*
X143065790Y-61595808D02*
X142970552Y-61643427D01*
X143399123Y-62214856D02*
X143303885Y-62262475D01*
X143303885Y-62262475D02*
X143065790Y-62262475D01*
X143065790Y-62262475D02*
X142970552Y-62214856D01*
X142970552Y-62214856D02*
X142922933Y-62119617D01*
X142922933Y-62119617D02*
X142922933Y-62024379D01*
X142922933Y-62024379D02*
X142970552Y-61929141D01*
X142970552Y-61929141D02*
X143065790Y-61881522D01*
X143065790Y-61881522D02*
X143303885Y-61881522D01*
X143303885Y-61881522D02*
X143399123Y-61833903D01*
X143875314Y-61595808D02*
X143875314Y-62262475D01*
X143875314Y-61691046D02*
X143922933Y-61643427D01*
X143922933Y-61643427D02*
X144018171Y-61595808D01*
X144018171Y-61595808D02*
X144161028Y-61595808D01*
X144161028Y-61595808D02*
X144256266Y-61643427D01*
X144256266Y-61643427D02*
X144303885Y-61738665D01*
X144303885Y-61738665D02*
X144303885Y-62262475D01*
X132256265Y-63586704D02*
X132732455Y-63586704D01*
X132161027Y-63872419D02*
X132494360Y-62872419D01*
X132494360Y-62872419D02*
X132827693Y-63872419D01*
X133161027Y-63872419D02*
X133161027Y-62872419D01*
X133161027Y-63253371D02*
X133256265Y-63205752D01*
X133256265Y-63205752D02*
X133446741Y-63205752D01*
X133446741Y-63205752D02*
X133541979Y-63253371D01*
X133541979Y-63253371D02*
X133589598Y-63300990D01*
X133589598Y-63300990D02*
X133637217Y-63396228D01*
X133637217Y-63396228D02*
X133637217Y-63681942D01*
X133637217Y-63681942D02*
X133589598Y-63777180D01*
X133589598Y-63777180D02*
X133541979Y-63824800D01*
X133541979Y-63824800D02*
X133446741Y-63872419D01*
X133446741Y-63872419D02*
X133256265Y-63872419D01*
X133256265Y-63872419D02*
X133161027Y-63824800D01*
X134494360Y-63872419D02*
X134494360Y-62872419D01*
X134494360Y-63824800D02*
X134399122Y-63872419D01*
X134399122Y-63872419D02*
X134208646Y-63872419D01*
X134208646Y-63872419D02*
X134113408Y-63824800D01*
X134113408Y-63824800D02*
X134065789Y-63777180D01*
X134065789Y-63777180D02*
X134018170Y-63681942D01*
X134018170Y-63681942D02*
X134018170Y-63396228D01*
X134018170Y-63396228D02*
X134065789Y-63300990D01*
X134065789Y-63300990D02*
X134113408Y-63253371D01*
X134113408Y-63253371D02*
X134208646Y-63205752D01*
X134208646Y-63205752D02*
X134399122Y-63205752D01*
X134399122Y-63205752D02*
X134494360Y-63253371D01*
X135399122Y-63872419D02*
X135399122Y-63348609D01*
X135399122Y-63348609D02*
X135351503Y-63253371D01*
X135351503Y-63253371D02*
X135256265Y-63205752D01*
X135256265Y-63205752D02*
X135065789Y-63205752D01*
X135065789Y-63205752D02*
X134970551Y-63253371D01*
X135399122Y-63824800D02*
X135303884Y-63872419D01*
X135303884Y-63872419D02*
X135065789Y-63872419D01*
X135065789Y-63872419D02*
X134970551Y-63824800D01*
X134970551Y-63824800D02*
X134922932Y-63729561D01*
X134922932Y-63729561D02*
X134922932Y-63634323D01*
X134922932Y-63634323D02*
X134970551Y-63539085D01*
X134970551Y-63539085D02*
X135065789Y-63491466D01*
X135065789Y-63491466D02*
X135303884Y-63491466D01*
X135303884Y-63491466D02*
X135399122Y-63443847D01*
X136018170Y-63872419D02*
X135922932Y-63824800D01*
X135922932Y-63824800D02*
X135875313Y-63729561D01*
X135875313Y-63729561D02*
X135875313Y-62872419D01*
X136541980Y-63872419D02*
X136446742Y-63824800D01*
X136446742Y-63824800D02*
X136399123Y-63729561D01*
X136399123Y-63729561D02*
X136399123Y-62872419D01*
X137351504Y-63872419D02*
X137351504Y-63348609D01*
X137351504Y-63348609D02*
X137303885Y-63253371D01*
X137303885Y-63253371D02*
X137208647Y-63205752D01*
X137208647Y-63205752D02*
X137018171Y-63205752D01*
X137018171Y-63205752D02*
X136922933Y-63253371D01*
X137351504Y-63824800D02*
X137256266Y-63872419D01*
X137256266Y-63872419D02*
X137018171Y-63872419D01*
X137018171Y-63872419D02*
X136922933Y-63824800D01*
X136922933Y-63824800D02*
X136875314Y-63729561D01*
X136875314Y-63729561D02*
X136875314Y-63634323D01*
X136875314Y-63634323D02*
X136922933Y-63539085D01*
X136922933Y-63539085D02*
X137018171Y-63491466D01*
X137018171Y-63491466D02*
X137256266Y-63491466D01*
X137256266Y-63491466D02*
X137351504Y-63443847D01*
X137827695Y-63872419D02*
X137827695Y-62872419D01*
X138256266Y-63872419D02*
X138256266Y-63348609D01*
X138256266Y-63348609D02*
X138208647Y-63253371D01*
X138208647Y-63253371D02*
X138113409Y-63205752D01*
X138113409Y-63205752D02*
X137970552Y-63205752D01*
X137970552Y-63205752D02*
X137875314Y-63253371D01*
X137875314Y-63253371D02*
X137827695Y-63300990D01*
X139446743Y-63824800D02*
X139589600Y-63872419D01*
X139589600Y-63872419D02*
X139827695Y-63872419D01*
X139827695Y-63872419D02*
X139922933Y-63824800D01*
X139922933Y-63824800D02*
X139970552Y-63777180D01*
X139970552Y-63777180D02*
X140018171Y-63681942D01*
X140018171Y-63681942D02*
X140018171Y-63586704D01*
X140018171Y-63586704D02*
X139970552Y-63491466D01*
X139970552Y-63491466D02*
X139922933Y-63443847D01*
X139922933Y-63443847D02*
X139827695Y-63396228D01*
X139827695Y-63396228D02*
X139637219Y-63348609D01*
X139637219Y-63348609D02*
X139541981Y-63300990D01*
X139541981Y-63300990D02*
X139494362Y-63253371D01*
X139494362Y-63253371D02*
X139446743Y-63158133D01*
X139446743Y-63158133D02*
X139446743Y-63062895D01*
X139446743Y-63062895D02*
X139494362Y-62967657D01*
X139494362Y-62967657D02*
X139541981Y-62920038D01*
X139541981Y-62920038D02*
X139637219Y-62872419D01*
X139637219Y-62872419D02*
X139875314Y-62872419D01*
X139875314Y-62872419D02*
X140018171Y-62920038D01*
X140875314Y-63872419D02*
X140875314Y-63348609D01*
X140875314Y-63348609D02*
X140827695Y-63253371D01*
X140827695Y-63253371D02*
X140732457Y-63205752D01*
X140732457Y-63205752D02*
X140541981Y-63205752D01*
X140541981Y-63205752D02*
X140446743Y-63253371D01*
X140875314Y-63824800D02*
X140780076Y-63872419D01*
X140780076Y-63872419D02*
X140541981Y-63872419D01*
X140541981Y-63872419D02*
X140446743Y-63824800D01*
X140446743Y-63824800D02*
X140399124Y-63729561D01*
X140399124Y-63729561D02*
X140399124Y-63634323D01*
X140399124Y-63634323D02*
X140446743Y-63539085D01*
X140446743Y-63539085D02*
X140541981Y-63491466D01*
X140541981Y-63491466D02*
X140780076Y-63491466D01*
X140780076Y-63491466D02*
X140875314Y-63443847D01*
X141256267Y-63205752D02*
X141494362Y-63872419D01*
X141732457Y-63205752D02*
X141494362Y-63872419D01*
X141494362Y-63872419D02*
X141399124Y-64110514D01*
X141399124Y-64110514D02*
X141351505Y-64158133D01*
X141351505Y-64158133D02*
X141256267Y-64205752D01*
X142494362Y-63824800D02*
X142399124Y-63872419D01*
X142399124Y-63872419D02*
X142208648Y-63872419D01*
X142208648Y-63872419D02*
X142113410Y-63824800D01*
X142113410Y-63824800D02*
X142065791Y-63729561D01*
X142065791Y-63729561D02*
X142065791Y-63348609D01*
X142065791Y-63348609D02*
X142113410Y-63253371D01*
X142113410Y-63253371D02*
X142208648Y-63205752D01*
X142208648Y-63205752D02*
X142399124Y-63205752D01*
X142399124Y-63205752D02*
X142494362Y-63253371D01*
X142494362Y-63253371D02*
X142541981Y-63348609D01*
X142541981Y-63348609D02*
X142541981Y-63443847D01*
X142541981Y-63443847D02*
X142065791Y-63539085D01*
X143399124Y-63872419D02*
X143399124Y-62872419D01*
X143399124Y-63824800D02*
X143303886Y-63872419D01*
X143303886Y-63872419D02*
X143113410Y-63872419D01*
X143113410Y-63872419D02*
X143018172Y-63824800D01*
X143018172Y-63824800D02*
X142970553Y-63777180D01*
X142970553Y-63777180D02*
X142922934Y-63681942D01*
X142922934Y-63681942D02*
X142922934Y-63396228D01*
X142922934Y-63396228D02*
X142970553Y-63300990D01*
X142970553Y-63300990D02*
X143018172Y-63253371D01*
X143018172Y-63253371D02*
X143113410Y-63205752D01*
X143113410Y-63205752D02*
X143303886Y-63205752D01*
X143303886Y-63205752D02*
X143399124Y-63253371D01*
X132303884Y-58372419D02*
X132303884Y-57372419D01*
X132303884Y-57372419D02*
X132637217Y-58086704D01*
X132637217Y-58086704D02*
X132970550Y-57372419D01*
X132970550Y-57372419D02*
X132970550Y-58372419D01*
X133827693Y-58324800D02*
X133732455Y-58372419D01*
X133732455Y-58372419D02*
X133541979Y-58372419D01*
X133541979Y-58372419D02*
X133446741Y-58324800D01*
X133446741Y-58324800D02*
X133399122Y-58229561D01*
X133399122Y-58229561D02*
X133399122Y-57848609D01*
X133399122Y-57848609D02*
X133446741Y-57753371D01*
X133446741Y-57753371D02*
X133541979Y-57705752D01*
X133541979Y-57705752D02*
X133732455Y-57705752D01*
X133732455Y-57705752D02*
X133827693Y-57753371D01*
X133827693Y-57753371D02*
X133875312Y-57848609D01*
X133875312Y-57848609D02*
X133875312Y-57943847D01*
X133875312Y-57943847D02*
X133399122Y-58039085D01*
X134303884Y-58372419D02*
X134303884Y-57705752D01*
X134303884Y-57800990D02*
X134351503Y-57753371D01*
X134351503Y-57753371D02*
X134446741Y-57705752D01*
X134446741Y-57705752D02*
X134589598Y-57705752D01*
X134589598Y-57705752D02*
X134684836Y-57753371D01*
X134684836Y-57753371D02*
X134732455Y-57848609D01*
X134732455Y-57848609D02*
X134732455Y-58372419D01*
X134732455Y-57848609D02*
X134780074Y-57753371D01*
X134780074Y-57753371D02*
X134875312Y-57705752D01*
X134875312Y-57705752D02*
X135018169Y-57705752D01*
X135018169Y-57705752D02*
X135113408Y-57753371D01*
X135113408Y-57753371D02*
X135161027Y-57848609D01*
X135161027Y-57848609D02*
X135161027Y-58372419D01*
X135637217Y-58372419D02*
X135637217Y-57372419D01*
X135637217Y-57753371D02*
X135732455Y-57705752D01*
X135732455Y-57705752D02*
X135922931Y-57705752D01*
X135922931Y-57705752D02*
X136018169Y-57753371D01*
X136018169Y-57753371D02*
X136065788Y-57800990D01*
X136065788Y-57800990D02*
X136113407Y-57896228D01*
X136113407Y-57896228D02*
X136113407Y-58181942D01*
X136113407Y-58181942D02*
X136065788Y-58277180D01*
X136065788Y-58277180D02*
X136018169Y-58324800D01*
X136018169Y-58324800D02*
X135922931Y-58372419D01*
X135922931Y-58372419D02*
X135732455Y-58372419D01*
X135732455Y-58372419D02*
X135637217Y-58324800D01*
X136922931Y-58324800D02*
X136827693Y-58372419D01*
X136827693Y-58372419D02*
X136637217Y-58372419D01*
X136637217Y-58372419D02*
X136541979Y-58324800D01*
X136541979Y-58324800D02*
X136494360Y-58229561D01*
X136494360Y-58229561D02*
X136494360Y-57848609D01*
X136494360Y-57848609D02*
X136541979Y-57753371D01*
X136541979Y-57753371D02*
X136637217Y-57705752D01*
X136637217Y-57705752D02*
X136827693Y-57705752D01*
X136827693Y-57705752D02*
X136922931Y-57753371D01*
X136922931Y-57753371D02*
X136970550Y-57848609D01*
X136970550Y-57848609D02*
X136970550Y-57943847D01*
X136970550Y-57943847D02*
X136494360Y-58039085D01*
X137399122Y-58372419D02*
X137399122Y-57705752D01*
X137399122Y-57896228D02*
X137446741Y-57800990D01*
X137446741Y-57800990D02*
X137494360Y-57753371D01*
X137494360Y-57753371D02*
X137589598Y-57705752D01*
X137589598Y-57705752D02*
X137684836Y-57705752D01*
X137970551Y-58324800D02*
X138065789Y-58372419D01*
X138065789Y-58372419D02*
X138256265Y-58372419D01*
X138256265Y-58372419D02*
X138351503Y-58324800D01*
X138351503Y-58324800D02*
X138399122Y-58229561D01*
X138399122Y-58229561D02*
X138399122Y-58181942D01*
X138399122Y-58181942D02*
X138351503Y-58086704D01*
X138351503Y-58086704D02*
X138256265Y-58039085D01*
X138256265Y-58039085D02*
X138113408Y-58039085D01*
X138113408Y-58039085D02*
X138018170Y-57991466D01*
X138018170Y-57991466D02*
X137970551Y-57896228D01*
X137970551Y-57896228D02*
X137970551Y-57848609D01*
X137970551Y-57848609D02*
X138018170Y-57753371D01*
X138018170Y-57753371D02*
X138113408Y-57705752D01*
X138113408Y-57705752D02*
X138256265Y-57705752D01*
X138256265Y-57705752D02*
X138351503Y-57753371D01*
X138827694Y-58277180D02*
X138875313Y-58324800D01*
X138875313Y-58324800D02*
X138827694Y-58372419D01*
X138827694Y-58372419D02*
X138780075Y-58324800D01*
X138780075Y-58324800D02*
X138827694Y-58277180D01*
X138827694Y-58277180D02*
X138827694Y-58372419D01*
X138827694Y-57753371D02*
X138875313Y-57800990D01*
X138875313Y-57800990D02*
X138827694Y-57848609D01*
X138827694Y-57848609D02*
X138780075Y-57800990D01*
X138780075Y-57800990D02*
X138827694Y-57753371D01*
X138827694Y-57753371D02*
X138827694Y-57848609D01*
D11*
X148379855Y-62840523D02*
X148379855Y-61590523D01*
X148379855Y-61590523D02*
X148796521Y-62483380D01*
X148796521Y-62483380D02*
X149213188Y-61590523D01*
X149213188Y-61590523D02*
X149213188Y-62840523D01*
X150344140Y-62840523D02*
X150344140Y-62185761D01*
X150344140Y-62185761D02*
X150284616Y-62066714D01*
X150284616Y-62066714D02*
X150165568Y-62007190D01*
X150165568Y-62007190D02*
X149927473Y-62007190D01*
X149927473Y-62007190D02*
X149808426Y-62066714D01*
X150344140Y-62781000D02*
X150225092Y-62840523D01*
X150225092Y-62840523D02*
X149927473Y-62840523D01*
X149927473Y-62840523D02*
X149808426Y-62781000D01*
X149808426Y-62781000D02*
X149748902Y-62661952D01*
X149748902Y-62661952D02*
X149748902Y-62542904D01*
X149748902Y-62542904D02*
X149808426Y-62423857D01*
X149808426Y-62423857D02*
X149927473Y-62364333D01*
X149927473Y-62364333D02*
X150225092Y-62364333D01*
X150225092Y-62364333D02*
X150344140Y-62304809D01*
X151475092Y-62840523D02*
X151475092Y-61590523D01*
X151475092Y-62781000D02*
X151356044Y-62840523D01*
X151356044Y-62840523D02*
X151117949Y-62840523D01*
X151117949Y-62840523D02*
X150998901Y-62781000D01*
X150998901Y-62781000D02*
X150939378Y-62721476D01*
X150939378Y-62721476D02*
X150879854Y-62602428D01*
X150879854Y-62602428D02*
X150879854Y-62245285D01*
X150879854Y-62245285D02*
X150939378Y-62126238D01*
X150939378Y-62126238D02*
X150998901Y-62066714D01*
X150998901Y-62066714D02*
X151117949Y-62007190D01*
X151117949Y-62007190D02*
X151356044Y-62007190D01*
X151356044Y-62007190D02*
X151475092Y-62066714D01*
X152546520Y-62781000D02*
X152427472Y-62840523D01*
X152427472Y-62840523D02*
X152189377Y-62840523D01*
X152189377Y-62840523D02*
X152070330Y-62781000D01*
X152070330Y-62781000D02*
X152010806Y-62661952D01*
X152010806Y-62661952D02*
X152010806Y-62185761D01*
X152010806Y-62185761D02*
X152070330Y-62066714D01*
X152070330Y-62066714D02*
X152189377Y-62007190D01*
X152189377Y-62007190D02*
X152427472Y-62007190D01*
X152427472Y-62007190D02*
X152546520Y-62066714D01*
X152546520Y-62066714D02*
X152606044Y-62185761D01*
X152606044Y-62185761D02*
X152606044Y-62304809D01*
X152606044Y-62304809D02*
X152010806Y-62423857D01*
X154094140Y-62840523D02*
X154094140Y-61590523D01*
X154094140Y-62066714D02*
X154213187Y-62007190D01*
X154213187Y-62007190D02*
X154451282Y-62007190D01*
X154451282Y-62007190D02*
X154570330Y-62066714D01*
X154570330Y-62066714D02*
X154629854Y-62126238D01*
X154629854Y-62126238D02*
X154689378Y-62245285D01*
X154689378Y-62245285D02*
X154689378Y-62602428D01*
X154689378Y-62602428D02*
X154629854Y-62721476D01*
X154629854Y-62721476D02*
X154570330Y-62781000D01*
X154570330Y-62781000D02*
X154451282Y-62840523D01*
X154451282Y-62840523D02*
X154213187Y-62840523D01*
X154213187Y-62840523D02*
X154094140Y-62781000D01*
X155106044Y-62007190D02*
X155403663Y-62840523D01*
X155701282Y-62007190D02*
X155403663Y-62840523D01*
X155403663Y-62840523D02*
X155284615Y-63138142D01*
X155284615Y-63138142D02*
X155225092Y-63197666D01*
X155225092Y-63197666D02*
X155106044Y-63257190D01*
X156951282Y-62007190D02*
X157427473Y-62007190D01*
X157129854Y-61590523D02*
X157129854Y-62661952D01*
X157129854Y-62661952D02*
X157189377Y-62781000D01*
X157189377Y-62781000D02*
X157308425Y-62840523D01*
X157308425Y-62840523D02*
X157427473Y-62840523D01*
X158320330Y-62781000D02*
X158201282Y-62840523D01*
X158201282Y-62840523D02*
X157963187Y-62840523D01*
X157963187Y-62840523D02*
X157844140Y-62781000D01*
X157844140Y-62781000D02*
X157784616Y-62661952D01*
X157784616Y-62661952D02*
X157784616Y-62185761D01*
X157784616Y-62185761D02*
X157844140Y-62066714D01*
X157844140Y-62066714D02*
X157963187Y-62007190D01*
X157963187Y-62007190D02*
X158201282Y-62007190D01*
X158201282Y-62007190D02*
X158320330Y-62066714D01*
X158320330Y-62066714D02*
X158379854Y-62185761D01*
X158379854Y-62185761D02*
X158379854Y-62304809D01*
X158379854Y-62304809D02*
X157784616Y-62423857D01*
X159451283Y-62840523D02*
X159451283Y-62185761D01*
X159451283Y-62185761D02*
X159391759Y-62066714D01*
X159391759Y-62066714D02*
X159272711Y-62007190D01*
X159272711Y-62007190D02*
X159034616Y-62007190D01*
X159034616Y-62007190D02*
X158915569Y-62066714D01*
X159451283Y-62781000D02*
X159332235Y-62840523D01*
X159332235Y-62840523D02*
X159034616Y-62840523D01*
X159034616Y-62840523D02*
X158915569Y-62781000D01*
X158915569Y-62781000D02*
X158856045Y-62661952D01*
X158856045Y-62661952D02*
X158856045Y-62542904D01*
X158856045Y-62542904D02*
X158915569Y-62423857D01*
X158915569Y-62423857D02*
X159034616Y-62364333D01*
X159034616Y-62364333D02*
X159332235Y-62364333D01*
X159332235Y-62364333D02*
X159451283Y-62304809D01*
X160046521Y-62840523D02*
X160046521Y-62007190D01*
X160046521Y-62126238D02*
X160106044Y-62066714D01*
X160106044Y-62066714D02*
X160225092Y-62007190D01*
X160225092Y-62007190D02*
X160403663Y-62007190D01*
X160403663Y-62007190D02*
X160522711Y-62066714D01*
X160522711Y-62066714D02*
X160582235Y-62185761D01*
X160582235Y-62185761D02*
X160582235Y-62840523D01*
X160582235Y-62185761D02*
X160641759Y-62066714D01*
X160641759Y-62066714D02*
X160760806Y-62007190D01*
X160760806Y-62007190D02*
X160939378Y-62007190D01*
X160939378Y-62007190D02*
X161058425Y-62066714D01*
X161058425Y-62066714D02*
X161117949Y-62185761D01*
X161117949Y-62185761D02*
X161117949Y-62840523D01*
X163320330Y-62840523D02*
X162606045Y-62840523D01*
X162963188Y-62840523D02*
X162963188Y-61590523D01*
X162963188Y-61590523D02*
X162844140Y-61769095D01*
X162844140Y-61769095D02*
X162725092Y-61888142D01*
X162725092Y-61888142D02*
X162606045Y-61947666D01*
X164391759Y-61590523D02*
X164153664Y-61590523D01*
X164153664Y-61590523D02*
X164034616Y-61650047D01*
X164034616Y-61650047D02*
X163975092Y-61709571D01*
X163975092Y-61709571D02*
X163856045Y-61888142D01*
X163856045Y-61888142D02*
X163796521Y-62126238D01*
X163796521Y-62126238D02*
X163796521Y-62602428D01*
X163796521Y-62602428D02*
X163856045Y-62721476D01*
X163856045Y-62721476D02*
X163915568Y-62781000D01*
X163915568Y-62781000D02*
X164034616Y-62840523D01*
X164034616Y-62840523D02*
X164272711Y-62840523D01*
X164272711Y-62840523D02*
X164391759Y-62781000D01*
X164391759Y-62781000D02*
X164451283Y-62721476D01*
X164451283Y-62721476D02*
X164510806Y-62602428D01*
X164510806Y-62602428D02*
X164510806Y-62304809D01*
X164510806Y-62304809D02*
X164451283Y-62185761D01*
X164451283Y-62185761D02*
X164391759Y-62126238D01*
X164391759Y-62126238D02*
X164272711Y-62066714D01*
X164272711Y-62066714D02*
X164034616Y-62066714D01*
X164034616Y-62066714D02*
X163915568Y-62126238D01*
X163915568Y-62126238D02*
X163856045Y-62185761D01*
X163856045Y-62185761D02*
X163796521Y-62304809D01*
X164927473Y-61590523D02*
X165701282Y-61590523D01*
X165701282Y-61590523D02*
X165284616Y-62066714D01*
X165284616Y-62066714D02*
X165463187Y-62066714D01*
X165463187Y-62066714D02*
X165582235Y-62126238D01*
X165582235Y-62126238D02*
X165641759Y-62185761D01*
X165641759Y-62185761D02*
X165701282Y-62304809D01*
X165701282Y-62304809D02*
X165701282Y-62602428D01*
X165701282Y-62602428D02*
X165641759Y-62721476D01*
X165641759Y-62721476D02*
X165582235Y-62781000D01*
X165582235Y-62781000D02*
X165463187Y-62840523D01*
X165463187Y-62840523D02*
X165106044Y-62840523D01*
X165106044Y-62840523D02*
X164986997Y-62781000D01*
X164986997Y-62781000D02*
X164927473Y-62721476D01*
X166177473Y-61709571D02*
X166236997Y-61650047D01*
X166236997Y-61650047D02*
X166356044Y-61590523D01*
X166356044Y-61590523D02*
X166653663Y-61590523D01*
X166653663Y-61590523D02*
X166772711Y-61650047D01*
X166772711Y-61650047D02*
X166832235Y-61709571D01*
X166832235Y-61709571D02*
X166891758Y-61828619D01*
X166891758Y-61828619D02*
X166891758Y-61947666D01*
X166891758Y-61947666D02*
X166832235Y-62126238D01*
X166832235Y-62126238D02*
X166117949Y-62840523D01*
X166117949Y-62840523D02*
X166891758Y-62840523D01*
X167665568Y-61590523D02*
X167784615Y-61590523D01*
X167784615Y-61590523D02*
X167903663Y-61650047D01*
X167903663Y-61650047D02*
X167963187Y-61709571D01*
X167963187Y-61709571D02*
X168022711Y-61828619D01*
X168022711Y-61828619D02*
X168082234Y-62066714D01*
X168082234Y-62066714D02*
X168082234Y-62364333D01*
X168082234Y-62364333D02*
X168022711Y-62602428D01*
X168022711Y-62602428D02*
X167963187Y-62721476D01*
X167963187Y-62721476D02*
X167903663Y-62781000D01*
X167903663Y-62781000D02*
X167784615Y-62840523D01*
X167784615Y-62840523D02*
X167665568Y-62840523D01*
X167665568Y-62840523D02*
X167546520Y-62781000D01*
X167546520Y-62781000D02*
X167486996Y-62721476D01*
X167486996Y-62721476D02*
X167427473Y-62602428D01*
X167427473Y-62602428D02*
X167367949Y-62364333D01*
X167367949Y-62364333D02*
X167367949Y-62066714D01*
X167367949Y-62066714D02*
X167427473Y-61828619D01*
X167427473Y-61828619D02*
X167486996Y-61709571D01*
X167486996Y-61709571D02*
X167546520Y-61650047D01*
X167546520Y-61650047D02*
X167665568Y-61590523D01*
D12*
X141045425Y-53147000D02*
X141331139Y-53242238D01*
X141331139Y-53242238D02*
X141807330Y-53242238D01*
X141807330Y-53242238D02*
X141997806Y-53147000D01*
X141997806Y-53147000D02*
X142093044Y-53051761D01*
X142093044Y-53051761D02*
X142188282Y-52861285D01*
X142188282Y-52861285D02*
X142188282Y-52670809D01*
X142188282Y-52670809D02*
X142093044Y-52480333D01*
X142093044Y-52480333D02*
X141997806Y-52385095D01*
X141997806Y-52385095D02*
X141807330Y-52289857D01*
X141807330Y-52289857D02*
X141426377Y-52194619D01*
X141426377Y-52194619D02*
X141235901Y-52099380D01*
X141235901Y-52099380D02*
X141140663Y-52004142D01*
X141140663Y-52004142D02*
X141045425Y-51813666D01*
X141045425Y-51813666D02*
X141045425Y-51623190D01*
X141045425Y-51623190D02*
X141140663Y-51432714D01*
X141140663Y-51432714D02*
X141235901Y-51337476D01*
X141235901Y-51337476D02*
X141426377Y-51242238D01*
X141426377Y-51242238D02*
X141902568Y-51242238D01*
X141902568Y-51242238D02*
X142188282Y-51337476D01*
X143045425Y-53242238D02*
X143045425Y-51908904D01*
X143045425Y-52099380D02*
X143140663Y-52004142D01*
X143140663Y-52004142D02*
X143331139Y-51908904D01*
X143331139Y-51908904D02*
X143616854Y-51908904D01*
X143616854Y-51908904D02*
X143807330Y-52004142D01*
X143807330Y-52004142D02*
X143902568Y-52194619D01*
X143902568Y-52194619D02*
X143902568Y-53242238D01*
X143902568Y-52194619D02*
X143997806Y-52004142D01*
X143997806Y-52004142D02*
X144188282Y-51908904D01*
X144188282Y-51908904D02*
X144473996Y-51908904D01*
X144473996Y-51908904D02*
X144664473Y-52004142D01*
X144664473Y-52004142D02*
X144759711Y-52194619D01*
X144759711Y-52194619D02*
X144759711Y-53242238D01*
X146569235Y-53242238D02*
X146569235Y-52194619D01*
X146569235Y-52194619D02*
X146473997Y-52004142D01*
X146473997Y-52004142D02*
X146283521Y-51908904D01*
X146283521Y-51908904D02*
X145902568Y-51908904D01*
X145902568Y-51908904D02*
X145712092Y-52004142D01*
X146569235Y-53147000D02*
X146378759Y-53242238D01*
X146378759Y-53242238D02*
X145902568Y-53242238D01*
X145902568Y-53242238D02*
X145712092Y-53147000D01*
X145712092Y-53147000D02*
X145616854Y-52956523D01*
X145616854Y-52956523D02*
X145616854Y-52766047D01*
X145616854Y-52766047D02*
X145712092Y-52575571D01*
X145712092Y-52575571D02*
X145902568Y-52480333D01*
X145902568Y-52480333D02*
X146378759Y-52480333D01*
X146378759Y-52480333D02*
X146569235Y-52385095D01*
X147521616Y-53242238D02*
X147521616Y-51908904D01*
X147521616Y-52289857D02*
X147616854Y-52099380D01*
X147616854Y-52099380D02*
X147712092Y-52004142D01*
X147712092Y-52004142D02*
X147902568Y-51908904D01*
X147902568Y-51908904D02*
X148093045Y-51908904D01*
X148473997Y-51908904D02*
X149235901Y-51908904D01*
X148759711Y-51242238D02*
X148759711Y-52956523D01*
X148759711Y-52956523D02*
X148854949Y-53147000D01*
X148854949Y-53147000D02*
X149045425Y-53242238D01*
X149045425Y-53242238D02*
X149235901Y-53242238D01*
X152569235Y-53242238D02*
X151902568Y-52289857D01*
X151426378Y-53242238D02*
X151426378Y-51242238D01*
X151426378Y-51242238D02*
X152188283Y-51242238D01*
X152188283Y-51242238D02*
X152378759Y-51337476D01*
X152378759Y-51337476D02*
X152473997Y-51432714D01*
X152473997Y-51432714D02*
X152569235Y-51623190D01*
X152569235Y-51623190D02*
X152569235Y-51908904D01*
X152569235Y-51908904D02*
X152473997Y-52099380D01*
X152473997Y-52099380D02*
X152378759Y-52194619D01*
X152378759Y-52194619D02*
X152188283Y-52289857D01*
X152188283Y-52289857D02*
X151426378Y-52289857D01*
X153712092Y-53242238D02*
X153521616Y-53147000D01*
X153521616Y-53147000D02*
X153426378Y-53051761D01*
X153426378Y-53051761D02*
X153331140Y-52861285D01*
X153331140Y-52861285D02*
X153331140Y-52289857D01*
X153331140Y-52289857D02*
X153426378Y-52099380D01*
X153426378Y-52099380D02*
X153521616Y-52004142D01*
X153521616Y-52004142D02*
X153712092Y-51908904D01*
X153712092Y-51908904D02*
X153997807Y-51908904D01*
X153997807Y-51908904D02*
X154188283Y-52004142D01*
X154188283Y-52004142D02*
X154283521Y-52099380D01*
X154283521Y-52099380D02*
X154378759Y-52289857D01*
X154378759Y-52289857D02*
X154378759Y-52861285D01*
X154378759Y-52861285D02*
X154283521Y-53051761D01*
X154283521Y-53051761D02*
X154188283Y-53147000D01*
X154188283Y-53147000D02*
X153997807Y-53242238D01*
X153997807Y-53242238D02*
X153712092Y-53242238D01*
X156093045Y-53242238D02*
X156093045Y-52194619D01*
X156093045Y-52194619D02*
X155997807Y-52004142D01*
X155997807Y-52004142D02*
X155807331Y-51908904D01*
X155807331Y-51908904D02*
X155426378Y-51908904D01*
X155426378Y-51908904D02*
X155235902Y-52004142D01*
X156093045Y-53147000D02*
X155902569Y-53242238D01*
X155902569Y-53242238D02*
X155426378Y-53242238D01*
X155426378Y-53242238D02*
X155235902Y-53147000D01*
X155235902Y-53147000D02*
X155140664Y-52956523D01*
X155140664Y-52956523D02*
X155140664Y-52766047D01*
X155140664Y-52766047D02*
X155235902Y-52575571D01*
X155235902Y-52575571D02*
X155426378Y-52480333D01*
X155426378Y-52480333D02*
X155902569Y-52480333D01*
X155902569Y-52480333D02*
X156093045Y-52385095D01*
X157902569Y-53242238D02*
X157902569Y-51242238D01*
X157902569Y-53147000D02*
X157712093Y-53242238D01*
X157712093Y-53242238D02*
X157331140Y-53242238D01*
X157331140Y-53242238D02*
X157140664Y-53147000D01*
X157140664Y-53147000D02*
X157045426Y-53051761D01*
X157045426Y-53051761D02*
X156950188Y-52861285D01*
X156950188Y-52861285D02*
X156950188Y-52289857D01*
X156950188Y-52289857D02*
X157045426Y-52099380D01*
X157045426Y-52099380D02*
X157140664Y-52004142D01*
X157140664Y-52004142D02*
X157331140Y-51908904D01*
X157331140Y-51908904D02*
X157712093Y-51908904D01*
X157712093Y-51908904D02*
X157902569Y-52004142D01*
D13*
X188369524Y-60070295D02*
X188369524Y-59270295D01*
X188369524Y-59270295D02*
X188560000Y-59270295D01*
X188560000Y-59270295D02*
X188674286Y-59308390D01*
X188674286Y-59308390D02*
X188750476Y-59384580D01*
X188750476Y-59384580D02*
X188788571Y-59460771D01*
X188788571Y-59460771D02*
X188826667Y-59613152D01*
X188826667Y-59613152D02*
X188826667Y-59727438D01*
X188826667Y-59727438D02*
X188788571Y-59879819D01*
X188788571Y-59879819D02*
X188750476Y-59956009D01*
X188750476Y-59956009D02*
X188674286Y-60032200D01*
X188674286Y-60032200D02*
X188560000Y-60070295D01*
X188560000Y-60070295D02*
X188369524Y-60070295D01*
X189093333Y-59270295D02*
X189588571Y-59270295D01*
X189588571Y-59270295D02*
X189321905Y-59575057D01*
X189321905Y-59575057D02*
X189436190Y-59575057D01*
X189436190Y-59575057D02*
X189512381Y-59613152D01*
X189512381Y-59613152D02*
X189550476Y-59651247D01*
X189550476Y-59651247D02*
X189588571Y-59727438D01*
X189588571Y-59727438D02*
X189588571Y-59917914D01*
X189588571Y-59917914D02*
X189550476Y-59994104D01*
X189550476Y-59994104D02*
X189512381Y-60032200D01*
X189512381Y-60032200D02*
X189436190Y-60070295D01*
X189436190Y-60070295D02*
X189207619Y-60070295D01*
X189207619Y-60070295D02*
X189131428Y-60032200D01*
X189131428Y-60032200D02*
X189093333Y-59994104D01*
X149970074Y-79729065D02*
X149970074Y-80366486D01*
X149970074Y-80366486D02*
X150007570Y-80441476D01*
X150007570Y-80441476D02*
X150045065Y-80478972D01*
X150045065Y-80478972D02*
X150120056Y-80516467D01*
X150120056Y-80516467D02*
X150270037Y-80516467D01*
X150270037Y-80516467D02*
X150345028Y-80478972D01*
X150345028Y-80478972D02*
X150382523Y-80441476D01*
X150382523Y-80441476D02*
X150420018Y-80366486D01*
X150420018Y-80366486D02*
X150420018Y-79729065D01*
X150757476Y-79804056D02*
X150794971Y-79766560D01*
X150794971Y-79766560D02*
X150869962Y-79729065D01*
X150869962Y-79729065D02*
X151057439Y-79729065D01*
X151057439Y-79729065D02*
X151132429Y-79766560D01*
X151132429Y-79766560D02*
X151169925Y-79804056D01*
X151169925Y-79804056D02*
X151207420Y-79879046D01*
X151207420Y-79879046D02*
X151207420Y-79954037D01*
X151207420Y-79954037D02*
X151169925Y-80066523D01*
X151169925Y-80066523D02*
X150719981Y-80516467D01*
X150719981Y-80516467D02*
X151207420Y-80516467D01*
X138253334Y-102926533D02*
X138720001Y-102926533D01*
X138920001Y-103659866D02*
X138253334Y-103659866D01*
X138253334Y-103659866D02*
X138253334Y-102259866D01*
X138253334Y-102259866D02*
X138920001Y-102259866D01*
X139453334Y-103593200D02*
X139653334Y-103659866D01*
X139653334Y-103659866D02*
X139986668Y-103659866D01*
X139986668Y-103659866D02*
X140120001Y-103593200D01*
X140120001Y-103593200D02*
X140186668Y-103526533D01*
X140186668Y-103526533D02*
X140253334Y-103393200D01*
X140253334Y-103393200D02*
X140253334Y-103259866D01*
X140253334Y-103259866D02*
X140186668Y-103126533D01*
X140186668Y-103126533D02*
X140120001Y-103059866D01*
X140120001Y-103059866D02*
X139986668Y-102993200D01*
X139986668Y-102993200D02*
X139720001Y-102926533D01*
X139720001Y-102926533D02*
X139586668Y-102859866D01*
X139586668Y-102859866D02*
X139520001Y-102793200D01*
X139520001Y-102793200D02*
X139453334Y-102659866D01*
X139453334Y-102659866D02*
X139453334Y-102526533D01*
X139453334Y-102526533D02*
X139520001Y-102393200D01*
X139520001Y-102393200D02*
X139586668Y-102326533D01*
X139586668Y-102326533D02*
X139720001Y-102259866D01*
X139720001Y-102259866D02*
X140053334Y-102259866D01*
X140053334Y-102259866D02*
X140253334Y-102326533D01*
X140853334Y-103659866D02*
X140853334Y-102259866D01*
X140853334Y-102259866D02*
X141386667Y-102259866D01*
X141386667Y-102259866D02*
X141520001Y-102326533D01*
X141520001Y-102326533D02*
X141586667Y-102393200D01*
X141586667Y-102393200D02*
X141653334Y-102526533D01*
X141653334Y-102526533D02*
X141653334Y-102726533D01*
X141653334Y-102726533D02*
X141586667Y-102859866D01*
X141586667Y-102859866D02*
X141520001Y-102926533D01*
X141520001Y-102926533D02*
X141386667Y-102993200D01*
X141386667Y-102993200D02*
X140853334Y-102993200D01*
X142120001Y-102259866D02*
X142986667Y-102259866D01*
X142986667Y-102259866D02*
X142520001Y-102793200D01*
X142520001Y-102793200D02*
X142720001Y-102793200D01*
X142720001Y-102793200D02*
X142853334Y-102859866D01*
X142853334Y-102859866D02*
X142920001Y-102926533D01*
X142920001Y-102926533D02*
X142986667Y-103059866D01*
X142986667Y-103059866D02*
X142986667Y-103393200D01*
X142986667Y-103393200D02*
X142920001Y-103526533D01*
X142920001Y-103526533D02*
X142853334Y-103593200D01*
X142853334Y-103593200D02*
X142720001Y-103659866D01*
X142720001Y-103659866D02*
X142320001Y-103659866D01*
X142320001Y-103659866D02*
X142186667Y-103593200D01*
X142186667Y-103593200D02*
X142120001Y-103526533D01*
X143520000Y-102393200D02*
X143586667Y-102326533D01*
X143586667Y-102326533D02*
X143720000Y-102259866D01*
X143720000Y-102259866D02*
X144053334Y-102259866D01*
X144053334Y-102259866D02*
X144186667Y-102326533D01*
X144186667Y-102326533D02*
X144253334Y-102393200D01*
X144253334Y-102393200D02*
X144320000Y-102526533D01*
X144320000Y-102526533D02*
X144320000Y-102659866D01*
X144320000Y-102659866D02*
X144253334Y-102859866D01*
X144253334Y-102859866D02*
X143453334Y-103659866D01*
X143453334Y-103659866D02*
X144320000Y-103659866D01*
X144920000Y-103126533D02*
X145986667Y-103126533D01*
X147453333Y-103526533D02*
X147386666Y-103593200D01*
X147386666Y-103593200D02*
X147186666Y-103659866D01*
X147186666Y-103659866D02*
X147053333Y-103659866D01*
X147053333Y-103659866D02*
X146853333Y-103593200D01*
X146853333Y-103593200D02*
X146720000Y-103459866D01*
X146720000Y-103459866D02*
X146653333Y-103326533D01*
X146653333Y-103326533D02*
X146586666Y-103059866D01*
X146586666Y-103059866D02*
X146586666Y-102859866D01*
X146586666Y-102859866D02*
X146653333Y-102593200D01*
X146653333Y-102593200D02*
X146720000Y-102459866D01*
X146720000Y-102459866D02*
X146853333Y-102326533D01*
X146853333Y-102326533D02*
X147053333Y-102259866D01*
X147053333Y-102259866D02*
X147186666Y-102259866D01*
X147186666Y-102259866D02*
X147386666Y-102326533D01*
X147386666Y-102326533D02*
X147453333Y-102393200D01*
X147986666Y-103259866D02*
X148653333Y-103259866D01*
X147853333Y-103659866D02*
X148320000Y-102259866D01*
X148320000Y-102259866D02*
X148786666Y-103659866D01*
X149253333Y-103659866D02*
X149253333Y-102259866D01*
X149253333Y-102259866D02*
X149720000Y-103259866D01*
X149720000Y-103259866D02*
X150186666Y-102259866D01*
X150186666Y-102259866D02*
X150186666Y-103659866D01*
X204639524Y-60570295D02*
X204639524Y-59770295D01*
X204639524Y-59770295D02*
X204830000Y-59770295D01*
X204830000Y-59770295D02*
X204944286Y-59808390D01*
X204944286Y-59808390D02*
X205020476Y-59884580D01*
X205020476Y-59884580D02*
X205058571Y-59960771D01*
X205058571Y-59960771D02*
X205096667Y-60113152D01*
X205096667Y-60113152D02*
X205096667Y-60227438D01*
X205096667Y-60227438D02*
X205058571Y-60379819D01*
X205058571Y-60379819D02*
X205020476Y-60456009D01*
X205020476Y-60456009D02*
X204944286Y-60532200D01*
X204944286Y-60532200D02*
X204830000Y-60570295D01*
X204830000Y-60570295D02*
X204639524Y-60570295D01*
X205401428Y-59846485D02*
X205439524Y-59808390D01*
X205439524Y-59808390D02*
X205515714Y-59770295D01*
X205515714Y-59770295D02*
X205706190Y-59770295D01*
X205706190Y-59770295D02*
X205782381Y-59808390D01*
X205782381Y-59808390D02*
X205820476Y-59846485D01*
X205820476Y-59846485D02*
X205858571Y-59922676D01*
X205858571Y-59922676D02*
X205858571Y-59998866D01*
X205858571Y-59998866D02*
X205820476Y-60113152D01*
X205820476Y-60113152D02*
X205363333Y-60570295D01*
X205363333Y-60570295D02*
X205858571Y-60570295D01*
X219869524Y-60570295D02*
X219869524Y-59770295D01*
X219869524Y-59770295D02*
X220060000Y-59770295D01*
X220060000Y-59770295D02*
X220174286Y-59808390D01*
X220174286Y-59808390D02*
X220250476Y-59884580D01*
X220250476Y-59884580D02*
X220288571Y-59960771D01*
X220288571Y-59960771D02*
X220326667Y-60113152D01*
X220326667Y-60113152D02*
X220326667Y-60227438D01*
X220326667Y-60227438D02*
X220288571Y-60379819D01*
X220288571Y-60379819D02*
X220250476Y-60456009D01*
X220250476Y-60456009D02*
X220174286Y-60532200D01*
X220174286Y-60532200D02*
X220060000Y-60570295D01*
X220060000Y-60570295D02*
X219869524Y-60570295D01*
X221088571Y-60570295D02*
X220631428Y-60570295D01*
X220860000Y-60570295D02*
X220860000Y-59770295D01*
X220860000Y-59770295D02*
X220783809Y-59884580D01*
X220783809Y-59884580D02*
X220707619Y-59960771D01*
X220707619Y-59960771D02*
X220631428Y-59998866D01*
X231620657Y-75733023D02*
X232430493Y-75733023D01*
X232430493Y-75733023D02*
X232525768Y-75685386D01*
X232525768Y-75685386D02*
X232573406Y-75637749D01*
X232573406Y-75637749D02*
X232621043Y-75542474D01*
X232621043Y-75542474D02*
X232621043Y-75351924D01*
X232621043Y-75351924D02*
X232573406Y-75256649D01*
X232573406Y-75256649D02*
X232525768Y-75209012D01*
X232525768Y-75209012D02*
X232430493Y-75161374D01*
X232430493Y-75161374D02*
X231620657Y-75161374D01*
X232621043Y-74160989D02*
X232621043Y-74732638D01*
X232621043Y-74446813D02*
X231620657Y-74446813D01*
X231620657Y-74446813D02*
X231763569Y-74542088D01*
X231763569Y-74542088D02*
X231858844Y-74637363D01*
X231858844Y-74637363D02*
X231906482Y-74732638D01*
D14*
%TO.C,D3*%
X191500000Y-57566000D02*
X191500000Y-54434000D01*
X191500000Y-57566000D02*
G75*
G02*
X191500000Y-54434000I-2506124J1566000D01*
G01*
D15*
X192300000Y-56000000D02*
G75*
G02*
X192100000Y-56000000I-100000J0D01*
G01*
X192100000Y-56000000D02*
G75*
G02*
X192300000Y-56000000I100000J0D01*
G01*
D14*
%TO.C,U2*%
X136600000Y-66190000D02*
X136600000Y-106195000D01*
X136600000Y-106195000D02*
X164540000Y-106195000D01*
X164540000Y-66190000D02*
X136600000Y-66190000D01*
X164540000Y-106195000D02*
X164540000Y-66190000D01*
X154586090Y-75080000D02*
G75*
G02*
X146553910Y-75080000I-4016090J0D01*
G01*
X146553910Y-75080000D02*
G75*
G02*
X154586090Y-75080000I4016090J0D01*
G01*
%TO.C,D2*%
X207770000Y-58066000D02*
X207770000Y-54934000D01*
X207770000Y-58066000D02*
G75*
G02*
X207770000Y-54934000I-2506124J1566000D01*
G01*
D15*
X208570000Y-56500000D02*
G75*
G02*
X208370000Y-56500000I-100000J0D01*
G01*
X208370000Y-56500000D02*
G75*
G02*
X208570000Y-56500000I100000J0D01*
G01*
D14*
%TO.C,D1*%
X223000000Y-58066000D02*
X223000000Y-54934000D01*
X223000000Y-58066000D02*
G75*
G02*
X223000000Y-54934000I-2506124J1566000D01*
G01*
D15*
X223800000Y-56500000D02*
G75*
G02*
X223600000Y-56500000I-100000J0D01*
G01*
X223600000Y-56500000D02*
G75*
G02*
X223800000Y-56500000I100000J0D01*
G01*
D14*
%TO.C,U1*%
X176470000Y-71850000D02*
X230870000Y-71850000D01*
X176470000Y-99750000D02*
X176470000Y-71850000D01*
X230870000Y-71850000D02*
X230870000Y-99750000D01*
X230870000Y-99750000D02*
X176470000Y-99750000D01*
D15*
X223580000Y-71200000D02*
G75*
G02*
X223380000Y-71200000I-100000J0D01*
G01*
X223380000Y-71200000D02*
G75*
G02*
X223580000Y-71200000I100000J0D01*
G01*
D16*
%TO.C,G\u002A\u002A\u002A*%
G36*
X137073767Y-52249252D02*
G01*
X137137600Y-52274564D01*
X137189804Y-52314681D01*
X137228685Y-52367910D01*
X137252548Y-52432558D01*
X137259784Y-52500000D01*
X137250836Y-52573858D01*
X137225402Y-52637723D01*
X137185159Y-52689919D01*
X137131783Y-52728767D01*
X137066952Y-52752592D01*
X136999999Y-52759804D01*
X136945911Y-52755887D01*
X136899680Y-52742649D01*
X136884954Y-52736167D01*
X136824502Y-52697745D01*
X136780055Y-52647430D01*
X136751939Y-52585757D01*
X136740482Y-52513258D01*
X136740214Y-52500000D01*
X136748914Y-52426417D01*
X136774175Y-52362711D01*
X136814304Y-52310575D01*
X136867606Y-52271700D01*
X136932387Y-52247781D01*
X136999999Y-52240439D01*
X137073767Y-52249252D01*
G37*
G36*
X137198306Y-51354467D02*
G01*
X137390016Y-51375280D01*
X137580157Y-51410983D01*
X137773758Y-51462408D01*
X137860388Y-51489916D01*
X138067807Y-51567038D01*
X138278603Y-51661096D01*
X138489570Y-51770137D01*
X138697499Y-51892210D01*
X138899184Y-52025363D01*
X139091418Y-52167646D01*
X139270995Y-52317107D01*
X139370933Y-52409037D01*
X139465970Y-52500000D01*
X139370933Y-52590962D01*
X139213095Y-52732605D01*
X139039208Y-52871548D01*
X138853227Y-53005185D01*
X138659110Y-53130913D01*
X138460814Y-53246129D01*
X138262297Y-53348229D01*
X138125493Y-53410427D01*
X137919663Y-53490089D01*
X137709882Y-53554717D01*
X137498712Y-53603839D01*
X137288716Y-53636983D01*
X137082459Y-53653677D01*
X136882503Y-53653448D01*
X136824930Y-53650068D01*
X136605847Y-53624574D01*
X136383729Y-53579868D01*
X136159521Y-53516337D01*
X135934169Y-53434368D01*
X135708616Y-53334349D01*
X135483807Y-53216667D01*
X135260689Y-53081710D01*
X135040205Y-52929866D01*
X135004214Y-52903268D01*
X134864390Y-52795491D01*
X134740736Y-52692772D01*
X134630741Y-52593011D01*
X134619062Y-52581834D01*
X134535684Y-52501594D01*
X134594052Y-52501594D01*
X134676905Y-52580538D01*
X134734834Y-52633376D01*
X134805158Y-52693735D01*
X134883562Y-52758142D01*
X134965728Y-52823123D01*
X135047339Y-52885202D01*
X135124079Y-52940906D01*
X135128660Y-52944128D01*
X135351170Y-53090872D01*
X135576595Y-53221014D01*
X135803556Y-53333909D01*
X136030673Y-53428913D01*
X136256568Y-53505380D01*
X136424773Y-53550275D01*
X136484765Y-53564140D01*
X136526406Y-53573006D01*
X136550718Y-53576870D01*
X136558721Y-53575731D01*
X136551438Y-53569587D01*
X136529890Y-53558436D01*
X136512240Y-53550127D01*
X136405597Y-53491946D01*
X136300235Y-53417854D01*
X136200585Y-53331690D01*
X136111080Y-53237293D01*
X136036150Y-53138502D01*
X136034900Y-53136614D01*
X135960965Y-53006908D01*
X135905123Y-52870524D01*
X135867373Y-52729325D01*
X135847715Y-52585171D01*
X135847107Y-52528777D01*
X135882541Y-52528777D01*
X135895162Y-52663747D01*
X135924531Y-52798704D01*
X135969727Y-52929944D01*
X136029827Y-53053763D01*
X136065169Y-53111717D01*
X136102774Y-53162496D01*
X136152356Y-53220131D01*
X136209415Y-53280128D01*
X136269454Y-53337995D01*
X136327973Y-53389237D01*
X136380474Y-53429361D01*
X136388806Y-53434970D01*
X136510246Y-53503510D01*
X136640921Y-53556725D01*
X136777426Y-53593811D01*
X136916359Y-53613967D01*
X137054314Y-53616391D01*
X137130051Y-53609680D01*
X137267553Y-53583395D01*
X137280376Y-53579369D01*
X137434748Y-53579369D01*
X137435171Y-53579422D01*
X137448234Y-53577403D01*
X137476736Y-53571644D01*
X137516639Y-53562998D01*
X137563909Y-53552318D01*
X137570224Y-53550862D01*
X137786690Y-53491854D01*
X138006306Y-53414499D01*
X138227063Y-53319776D01*
X138446955Y-53208664D01*
X138663975Y-53082139D01*
X138876114Y-52941182D01*
X138985781Y-52861034D01*
X139044288Y-52815913D01*
X139106612Y-52766197D01*
X139169467Y-52714653D01*
X139229568Y-52664048D01*
X139283627Y-52617151D01*
X139328359Y-52576728D01*
X139360478Y-52545549D01*
X139360929Y-52545080D01*
X139405947Y-52498235D01*
X139318307Y-52415183D01*
X139277813Y-52378145D01*
X139227113Y-52333768D01*
X139171862Y-52286898D01*
X139117718Y-52242384D01*
X139101747Y-52229586D01*
X138879958Y-52063017D01*
X138654968Y-51913406D01*
X138427761Y-51781253D01*
X138199322Y-51667060D01*
X137970635Y-51571330D01*
X137742685Y-51494562D01*
X137570224Y-51449137D01*
X137522308Y-51438260D01*
X137481247Y-51429309D01*
X137451077Y-51423136D01*
X137435833Y-51420596D01*
X137435171Y-51420577D01*
X137438353Y-51424484D01*
X137456083Y-51434457D01*
X137484634Y-51448421D01*
X137487759Y-51449872D01*
X137572806Y-51495483D01*
X137660226Y-51553646D01*
X137745959Y-51620857D01*
X137825943Y-51693612D01*
X137896114Y-51768405D01*
X137952412Y-51841734D01*
X137965379Y-51861923D01*
X138005395Y-51927368D01*
X138096188Y-51932199D01*
X138145758Y-51935971D01*
X138183468Y-51942388D01*
X138217451Y-51953390D01*
X138253465Y-51969747D01*
X138322367Y-52013422D01*
X138383909Y-52071204D01*
X138432893Y-52137825D01*
X138448611Y-52167473D01*
X138460540Y-52194785D01*
X138468344Y-52219464D01*
X138472880Y-52246997D01*
X138475004Y-52282868D01*
X138475575Y-52332561D01*
X138475580Y-52340000D01*
X138475229Y-52390918D01*
X138473553Y-52427287D01*
X138469618Y-52454553D01*
X138462493Y-52478163D01*
X138451245Y-52503563D01*
X138445604Y-52515000D01*
X138405874Y-52577901D01*
X138354192Y-52634843D01*
X138294751Y-52682467D01*
X138231746Y-52717415D01*
X138169372Y-52736327D01*
X138169149Y-52736363D01*
X138149707Y-52740468D01*
X138137246Y-52748187D01*
X138128275Y-52764190D01*
X138119300Y-52793149D01*
X138115145Y-52808587D01*
X138070438Y-52938989D01*
X138007837Y-53064995D01*
X137929351Y-53184227D01*
X137836993Y-53294310D01*
X137732773Y-53392867D01*
X137618701Y-53477520D01*
X137496788Y-53545894D01*
X137487759Y-53550127D01*
X137458377Y-53564360D01*
X137439465Y-53574800D01*
X137434748Y-53579369D01*
X137280376Y-53579369D01*
X137401236Y-53541423D01*
X137451894Y-53520700D01*
X137574821Y-53456228D01*
X137689854Y-53375257D01*
X137794958Y-53280079D01*
X137888098Y-53172989D01*
X137967236Y-53056278D01*
X138030338Y-52932242D01*
X138069045Y-52825470D01*
X138078808Y-52791514D01*
X138085438Y-52766313D01*
X138087661Y-52754747D01*
X138087564Y-52754503D01*
X138077398Y-52752330D01*
X138052683Y-52747974D01*
X138018638Y-52742351D01*
X138016459Y-52742001D01*
X137928340Y-52718184D01*
X137848937Y-52677238D01*
X137780453Y-52620770D01*
X137725089Y-52550386D01*
X137705241Y-52515000D01*
X137692152Y-52487452D01*
X137683547Y-52463797D01*
X137678492Y-52438587D01*
X137676055Y-52406375D01*
X137675303Y-52361715D01*
X137675265Y-52340000D01*
X137675479Y-52314676D01*
X137705723Y-52314676D01*
X137709266Y-52389697D01*
X137710857Y-52398015D01*
X137737624Y-52483166D01*
X137778996Y-52556259D01*
X137832922Y-52616155D01*
X137897352Y-52661713D01*
X137970237Y-52691793D01*
X138049526Y-52705256D01*
X138133168Y-52700961D01*
X138216064Y-52678921D01*
X138282264Y-52643999D01*
X138339973Y-52593817D01*
X138387143Y-52531982D01*
X138421725Y-52462098D01*
X138441669Y-52387772D01*
X138444926Y-52312608D01*
X138441079Y-52283015D01*
X138416169Y-52200304D01*
X138374515Y-52125653D01*
X138318294Y-52061970D01*
X138249683Y-52012161D01*
X138230866Y-52002226D01*
X138202332Y-51989323D01*
X138176395Y-51981250D01*
X138146807Y-51976910D01*
X138107320Y-51975211D01*
X138075423Y-51975004D01*
X138026747Y-51975623D01*
X137991813Y-51978209D01*
X137964371Y-51983857D01*
X137938173Y-51993661D01*
X137919979Y-52002226D01*
X137851905Y-52045560D01*
X137794730Y-52101712D01*
X137750167Y-52167443D01*
X137719927Y-52239511D01*
X137705723Y-52314676D01*
X137675479Y-52314676D01*
X137675703Y-52288198D01*
X137677587Y-52250903D01*
X137681775Y-52222630D01*
X137689124Y-52197893D01*
X137700493Y-52171210D01*
X137702235Y-52167473D01*
X137743684Y-52099636D01*
X137799633Y-52037930D01*
X137864581Y-51987953D01*
X137895637Y-51970605D01*
X137927288Y-51953937D01*
X137950353Y-51939705D01*
X137960282Y-51930748D01*
X137960377Y-51930239D01*
X137953963Y-51915264D01*
X137936476Y-51888946D01*
X137910546Y-51854511D01*
X137878805Y-51815189D01*
X137843884Y-51774206D01*
X137808415Y-51734791D01*
X137775029Y-51700170D01*
X137764412Y-51689867D01*
X137651061Y-51594712D01*
X137530033Y-51517526D01*
X137400253Y-51457819D01*
X137260650Y-51415103D01*
X137110152Y-51388888D01*
X137102540Y-51388025D01*
X136972555Y-51383040D01*
X136838512Y-51395458D01*
X136704278Y-51424321D01*
X136573723Y-51468670D01*
X136450716Y-51527544D01*
X136388806Y-51565029D01*
X136337840Y-51602716D01*
X136280059Y-51652316D01*
X136219962Y-51709337D01*
X136162047Y-51769284D01*
X136110813Y-51827665D01*
X136070758Y-51879986D01*
X136065169Y-51888282D01*
X135994055Y-52014699D01*
X135939711Y-52151597D01*
X135902445Y-52298087D01*
X135887587Y-52397499D01*
X135882541Y-52528777D01*
X135847107Y-52528777D01*
X135846150Y-52439926D01*
X135862678Y-52295451D01*
X135897298Y-52153608D01*
X135950011Y-52016258D01*
X136020816Y-51885263D01*
X136034900Y-51863385D01*
X136109511Y-51764548D01*
X136198782Y-51670032D01*
X136298281Y-51583677D01*
X136403576Y-51509320D01*
X136510236Y-51450803D01*
X136512240Y-51449872D01*
X136541621Y-51435639D01*
X136560534Y-51425199D01*
X136565251Y-51420630D01*
X136564828Y-51420577D01*
X136551764Y-51422596D01*
X136523263Y-51428355D01*
X136483360Y-51437001D01*
X136436090Y-51447681D01*
X136429775Y-51449137D01*
X136213309Y-51508145D01*
X135993693Y-51585500D01*
X135772936Y-51680223D01*
X135553043Y-51791335D01*
X135336024Y-51917860D01*
X135123885Y-52058817D01*
X135014218Y-52138965D01*
X134955853Y-52183977D01*
X134893611Y-52233625D01*
X134830787Y-52285135D01*
X134770675Y-52335735D01*
X134716571Y-52382648D01*
X134671769Y-52423102D01*
X134639565Y-52454321D01*
X134639070Y-52454834D01*
X134594052Y-52501594D01*
X134535684Y-52501594D01*
X134534028Y-52500000D01*
X134619062Y-52418165D01*
X134793140Y-52261326D01*
X134981717Y-52111182D01*
X135181663Y-51969642D01*
X135389849Y-51838618D01*
X135603148Y-51720018D01*
X135818429Y-51615754D01*
X136032565Y-51527734D01*
X136139661Y-51489935D01*
X136336604Y-51431309D01*
X136527978Y-51388821D01*
X136718807Y-51361639D01*
X136914115Y-51348934D01*
X136999999Y-51347715D01*
X137198306Y-51354467D01*
G37*
%TD*%
M02*
