M48
; DRILL file {KiCad 9.0.5} date 2025-11-12T21:49:44+0200
; FORMAT={-:-/ absolute / metric / decimal}
; #@! TF.CreationDate,2025-11-12T21:49:44+02:00
; #@! TF.GenerationSoftware,Kicad,Pcbnew,9.0.5
; #@! TF.FileFunction,Plated,1,2,PTH
FMAT,2
METRIC
; #@! TA.AperFunction,Plated,PTH,ComponentDrill
T1C1.016
; #@! TA.AperFunction,Plated,PTH,ComponentDrill
T2C1.040
; #@! TA.AperFunction,Plated,PTH,ComponentDrill
T3C1.210
%
G90
G05
T1
X139.14Y-70.0
X139.14Y-72.54
X139.14Y-75.08
X139.14Y-77.62
X139.14Y-80.16
X139.14Y-82.7
X139.14Y-85.24
X139.14Y-87.78
X162.0Y-70.0
X162.0Y-72.54
X162.0Y-75.08
X162.0Y-77.62
X162.0Y-80.16
X162.0Y-82.7
X162.0Y-85.24
X162.0Y-87.78
T2
X177.76Y-73.1
X177.76Y-98.5
X180.3Y-73.1
X180.3Y-98.5
X182.84Y-73.1
X182.84Y-98.5
X185.38Y-73.1
X185.38Y-98.5
X187.92Y-73.1
X187.92Y-98.5
X190.46Y-73.1
X190.46Y-98.5
X193.0Y-73.1
X193.0Y-98.5
X195.54Y-73.1
X195.54Y-98.5
X198.08Y-73.1
X198.08Y-98.5
X200.62Y-73.1
X200.62Y-98.5
X203.16Y-73.1
X203.16Y-98.5
X205.7Y-73.1
X205.7Y-98.5
X208.24Y-73.1
X208.24Y-98.5
X210.78Y-73.1
X210.78Y-98.5
X213.32Y-73.1
X213.32Y-98.5
X215.86Y-73.1
X215.86Y-98.5
X218.4Y-73.1
X218.4Y-98.5
X220.94Y-73.1
X220.94Y-98.5
X223.48Y-73.1
X223.48Y-98.5
T3
X187.73Y-56.0
X190.27Y-56.0
X204.0Y-56.5
X206.54Y-56.5
X219.23Y-56.5
X221.77Y-56.5
M30
